<?xml version="1.0"?>
<svg xmlns:rdf="http://www.w3.org/1999/02/22-rdf-syntax-ns#" xmlns="http://www.w3.org/2000/svg" xmlns:cc="http://creativecommons.org/ns#" xmlns:dc="http://purl.org/dc/elements/1.1/" id="svg2" fill-rule="evenodd" xml:space="preserve" viewBox="0 0 209.99874 209.99875" version="1.1">
 <defs id="defs4">
  <style id="style6" type="text/css">
    .fil1 {fill:black;fill-rule:nonzero}
    .fil2 {fill:white;fill-rule:nonzero}
    .fil0 {fill:url(#id0)}
  </style>
 </defs>
 <g id="&#x421;&#x43B;&#x43E;&#x439;_x0020_1" transform="matrix(2.0207 0 0 2.0207 -107.25 -187.6)">
  <rect id="rect15" class="fil0" height="98.637" width="98.637" y="94.859" x="55.76" fill="url(#id0)"/>
  <g id="_561977864" fill-rule="nonzero">
   <path id="_561977960" class="fil1" d="m91.877 104.84c-6.9495-0.01-10.327 5.1001-11.501 10.072-1.211 5.1319 0.2152 10.902-0.0702 10.83-0.2854-0.0716-0.0786 2.57 0.7757 5.7768 0.8559 3.2067 2.7137 3.2713 2.9986 3.2713 0.2854 0 1.1357 4.1398 1.3491 5.6363 0.2151 1.4965 3.0692 4.203 3.211 4.6302s-0.7828 0.8559-1.0664 1.6397c-0.2854 0.7843-0.3628 4.8507-0.3628 4.8507s-0.2094 0.6368-2.1346 1.421c-1.9237 0.7839-9.624 2.3552-11.05 3.139-1.4248 0.7843-2.9199 2.6363-3.6339 5.416-0.7123 2.7795 0.2151 6.267 0.8557 10.116 0 0-0.493 4.9968-0.493 6.2078 0 1.2114 0.0674 4.5531-0.5733 5.1955-0.6424 0.6406-0.4244 2.8525-1.2087 5.9873-0.5069 2.0298-1.6675 3.5997-2.4253 4.4637h59.531c0.1859-1.1603 0.7524-4.523 1.4029-5.8829 0.7317-1.531 1.021 4.9843 1.0584 5.8829h14.648c-0.1253-0.689-1.5794-8.672-2.8745-13.652-1.3546-5.2034-3.9207-6.9137-4.3494-13.257-0.4268-6.343-4.4178-8.8357-4.4178-8.8357s0.6382 0.1376-0.5733-3.0706c-1.2114-3.2064-6.7634-4.0622-8.6169-4.2774-1.8535-0.2134-8.4141-1.3518-10.054-1.9925-1.6383-0.6406-4.2058-2.2821-5.2034-5.1332-0.9977-2.8512-1.8521-2.9888-1.8521-2.9888s-0.3542-5.9905 0.6434-5.8487c0.998 0.1436 2.3499-0.4244 2.9203-1.1366 0.5705-0.7126 0.7867-2.285 1.4291-4.9209 0.6407-2.6378-0.5732-3.7042-0.5732-3.7042s1.3172-5.8801-0.4248-11.263c-1.0953-3.3902-3.7659-6.1835-7.2481-7.4884-2.7933-1.046-6.1296-0.908-9.4287-1.0664-0.2206-0.0108-0.4425-0.0174-0.656-0.018h-0.0315z"/>
   <path id="_561977936" class="fil2" fill="#fff" d="m105.33 140.32c-0.004 0.0138-0.01 0.0275-0.01 0.0441 0 0.9977-0.1418 2.2751-0.8541 3.2011-0.714 0.9261-4.8496 4.5614-6.7747 6.1295-1.9238 1.5681-3.846 4.2073-4.5583 4.9911-0.714 0.7843-1.2128-0.6392-3.4233-3.6322-2.2088-2.9947-1.1366-5.6282-1.1366-5.6282l-0.0181-0.008c-0.2261 0.3306-0.8597 0.7151-1.0678 1.2869-0.2854 0.7843-0.3447 4.7625-0.3447 4.7625s0.029 0.1972-0.149 0.3807c-0.0165 0.1266-0.2754 2.1756-0.4147 3.7645-0.1418 1.64-1.2813 2.7838-1.8521 6.6325-0.569 3.8489 0.0014 14.256 2.5676 24.448 0 0 0.208-5.2792 0.5633-8.2021 0.3571-2.9213 3.0691-11.261 3.1408-14.825 0.0715-3.5637-3.5624-8.1181-3.7041-8.6169-0.1434-0.4988 2.4873-0.9359 2.4873-0.9359s0.073 3.4219 0.6436 2.6377c0.5703-0.7842 2.3494 0.3637 5.414 0.1503 3.0649-0.2138 3.2811-2.1428 3.2811-2.1428l2.6378 2.213s-1.4965 0.5662-2.6378 1.2086c-1.1394 0.6407-5.7037 2.92-4.1352 5.486 1.5667 2.5658 2.5644 9.9068 2.6359 11.333 0.0717 1.4249 0.6435 14.684 0.6435 14.684s0.211-0.4261 0.3528-1.1384c0.1436-0.7126 2.7107-15.685 3.2812-18.821 0.5704-3.1348 1.9265-11.54 3.2812-14.674 1.3546-3.1366 2.4253-8.4903 2.4253-10.627v-0.018c-0.193-0.35-0.2741-0.7772-0.4134-1.1741-0.827-2.3608-1.6359-2.8056-1.8616-2.909z"/>
  </g>
 </g>
<metadata><rdf:RDF><cc:Work><dc:format>image/svg+xml</dc:format><dc:type rdf:resource="http://purl.org/dc/dcmitype/StillImage"/><cc:license rdf:resource="http://creativecommons.org/licenses/publicdomain/"/><dc:publisher><cc:Agent rdf:about="http://openclipart.org/"><dc:title>Openclipart</dc:title></cc:Agent></dc:publisher></cc:Work><cc:License rdf:about="http://creativecommons.org/licenses/publicdomain/"><cc:permits rdf:resource="http://creativecommons.org/ns#Reproduction"/><cc:permits rdf:resource="http://creativecommons.org/ns#Distribution"/><cc:permits rdf:resource="http://creativecommons.org/ns#DerivativeWorks"/></cc:License></rdf:RDF></metadata></svg>
